<svg width="240" height="180" viewBox="0 0 240 180" fill="none" xmlns="http://www.w3.org/2000/svg">
<g id="remove_illustration">
<g id="freepik--background-complete--inject-34">
<rect id="Rectangle" y="158.182" width="240" height="0.120786" fill="#EBEBEB"/>
<rect id="Rectangle_2" x="25.1808" y="162.781" width="15.8976" height="0.120786" fill="#EBEBEB"/>
<rect id="Rectangle_3" x="82.1472" y="161.472" width="20.4144" height="0.120786" fill="#EBEBEB"/>
<rect id="Rectangle_4" x="44.8656" y="164.477" width="9.2112" height="0.120786" fill="#EBEBEB"/>
<rect id="Rectangle_5" x="208.642" y="166.457" width="7.3104" height="0.120786" fill="#EBEBEB"/>
<rect id="Rectangle_6" x="187.906" y="166.457" width="16.4592" height="0.120786" fill="#EBEBEB"/>
<rect id="Rectangle_7" x="147.84" y="162.979" width="11.4384" height="0.120786" fill="#EBEBEB"/>
<path id="Shape" fill-rule="evenodd" clip-rule="evenodd" d="M21.0816 136.633H113.76C115.274 136.633 116.501 135.398 116.501 133.874V2.75875C116.501 1.23513 115.274 2.07105e-09 113.76 2.07105e-09H21.0816C19.5772 -5.80528e-05 18.354 1.22042 18.3408 2.73459V133.874C18.3408 135.398 19.5679 136.633 21.0816 136.633ZM18.4608 2.73459C18.4635 1.27879 19.6353 0.0992877 21.0816 0.0966287H113.76C115.206 0.0992877 116.378 1.27879 116.381 2.73459V133.874C116.378 135.33 115.206 136.51 113.76 136.512H21.0816C19.6353 136.51 18.4635 135.33 18.4608 133.874V2.73459Z" fill="#EBEBEB"/>
<path id="Shape_2" fill-rule="evenodd" clip-rule="evenodd" d="M124.901 136.633H217.589C219.099 136.628 220.32 135.394 220.32 133.874V2.73459C220.307 1.22418 219.089 0.00523279 217.589 0H124.901C123.398 0.00256215 122.176 1.22152 122.16 2.73459V133.874C122.163 135.397 123.388 136.63 124.901 136.633ZM122.28 2.73459C122.283 1.27879 123.455 0.0992877 124.901 0.0966287H217.589C219.035 0.0992877 220.207 1.27879 220.21 2.73459V133.874C220.207 135.33 219.035 136.51 217.589 136.512H124.901C123.455 136.51 122.283 135.33 122.28 133.874V2.73459Z" fill="#EBEBEB"/>
<rect id="Rectangle_8" x="199.378" y="68.3018" width="51.7776" height="52.2568" transform="rotate(180 199.378 68.3018)" fill="#F6FBE2"/>
<rect id="Rectangle_9" x="146.707" y="16.0498" width="0.8928" height="52.2568" fill="#E0E0E0"/>
<rect id="Rectangle_10" x="194.808" y="65.002" width="42.6336" height="45.6571" transform="rotate(180 194.808 65.002)" fill="#FAFAFA"/>
<path id="Path" d="M168.96 55.0786H182.462C185.39 55.0786 187.349 52.6918 186.835 49.764L184.21 34.6271C183.609 31.6115 181.024 29.4096 177.97 29.3125H164.501C161.573 29.3125 159.614 31.6992 160.128 34.6271L162.754 49.764C163.35 52.7686 165.918 54.9678 168.96 55.0786Z" fill="#F6FBE2"/>
<rect id="Rectangle_11" x="38.8656" y="84.1729" width="11.52" height="71.5294" fill="#F6FBE2"/>
<rect id="Rectangle_12" x="40.0416" y="155.708" width="60.8928" height="2.46886" fill="#F6FBE2"/>
<rect id="Rectangle_13" x="101.947" y="155.708" width="51.5616" height="71.5294" transform="rotate(180 101.947 155.708)" fill="#F5F5F5"/>
<rect id="Rectangle_14" x="99.8735" y="134.193" width="47.4144" height="12.7743" transform="rotate(180 99.8735 134.193)" fill="#F6FBE2"/>
<rect id="Rectangle_15" x="99.8735" y="150.91" width="47.4144" height="12.7743" transform="rotate(180 99.8735 150.91)" fill="#F6FBE2"/>
<rect id="Rectangle_16" x="57.504" y="120.636" width="37.3248" height="1.75381" rx="0.876906" fill="#F5F5F5"/>
<rect id="Rectangle_17" x="57.504" y="137.357" width="37.3248" height="1.75381" rx="0.876906" fill="#F5F5F5"/>
<rect id="Rectangle_18" x="99.8735" y="100.89" width="47.4144" height="12.7743" transform="rotate(180 99.8735 100.89)" fill="#F6FBE2"/>
<rect id="Rectangle_19" x="99.8735" y="117.481" width="47.4144" height="12.7743" transform="rotate(180 99.8735 117.481)" fill="#F6FBE2"/>
<rect id="Rectangle_20" x="57.504" y="87.3379" width="37.3248" height="1.75381" rx="0.876906" fill="#F5F5F5"/>
<rect id="Rectangle_21" x="57.504" y="103.919" width="37.3248" height="1.75381" rx="0.876906" fill="#F5F5F5"/>
<rect id="Rectangle_22" x="35.4192" y="12.1074" width="64.6608" height="57.1366" fill="#E6E6E6"/>
<path id="Path_2" d="M107.011 9.88477H31.2336C31.0635 9.88476 30.9004 9.95312 30.7805 10.0747C30.6606 10.1962 30.594 10.3609 30.5952 10.5322C30.5952 10.8871 30.8811 11.1748 31.2336 11.1748H107.011C107.365 11.1748 107.652 10.8878 107.654 10.5322C107.654 10.1746 107.366 9.88477 107.011 9.88477Z" fill="#E6E6E6"/>
<rect id="Rectangle_23" x="36.7008" y="12.1074" width="66.1248" height="57.1366" fill="#F6FBE2"/>
<path id="Path_3" d="M100.08 69.2441H35.4192V71.0753H101.971L100.08 69.2441Z" fill="#E6E6E6"/>
<path id="Path_4" d="M107.395 69.2441H41.2751L43.1615 71.0753H109.286L107.395 69.2441Z" fill="#F6FBE2"/>
<path id="Rectangle_24" d="M98.9856 15.9727V65.3789H40.5456V15.9727L98.9856 15.9727Z" fill="#FAFAFA"/>
<path id="Path_5" d="M53.8127 65.3789L76.3535 15.9727H86.9999L64.4543 65.3789H53.8127Z" fill="white"/>
<path id="Path_6" d="M66.7393 65.3789L89.2849 15.9727H93.4321L70.8913 65.3789H66.7393Z" fill="white"/>
<path id="Rectangle_25" d="M98.9856 15.9727V65.3789H98.496V15.9727H98.9856Z" fill="#E6E6E6"/>
<g id="Group" opacity="0.4">
<rect id="Rectangle_26" x="33.9792" y="8.73047" width="6.6096" height="47.15" fill="#F6FBE2"/>
<rect id="Rectangle_27" x="38.016" y="8.73047" width="5.1504" height="47.15" fill="#E6E6E6"/>
<rect id="Rectangle_28" x="40.5889" y="8.73047" width="6.6096" height="47.15" fill="#F6FBE2"/>
<rect id="Rectangle_29" x="44.6256" y="8.73047" width="5.1504" height="47.15" fill="#E6E6E6"/>
<rect id="Rectangle_30" x="47.1985" y="8.73047" width="6.6096" height="47.15" fill="#F6FBE2"/>
</g>
<g id="Group_2" opacity="0.4">
<rect id="Rectangle_31" x="92.7168" y="8.73047" width="3.8112" height="47.15" fill="#F6FBE2"/>
<rect id="Rectangle_32" x="95.04" y="8.73047" width="2.9664" height="47.15" fill="#E6E6E6"/>
<rect id="Rectangle_33" x="96.5232" y="8.73047" width="3.8112" height="47.15" fill="#F6FBE2"/>
<rect id="Rectangle_34" x="98.8512" y="8.73047" width="2.9664" height="47.15" fill="#E6E6E6"/>
<rect id="Rectangle_35" x="100.334" y="8.73047" width="3.8112" height="47.15" fill="#F6FBE2"/>
</g>
<path id="Path_7" d="M171.288 103.494C171.13 105.445 172.574 107.156 174.513 107.316C176.451 107.475 178.152 106.023 178.311 104.072C178.47 102.12 177.028 100.408 175.09 100.247C173.15 100.089 171.448 101.541 171.288 103.494Z" fill="#E0E0E0"/>
<ellipse id="Oval" cx="180.57" cy="105.629" rx="3.52849" ry="3.55062" transform="rotate(-8.37 180.57 105.629)" fill="#E0E0E0"/>
<path id="Path_8" d="M183.226 106.075C183.068 108.026 184.511 109.737 186.45 109.897C188.389 110.056 190.089 108.604 190.249 106.653C190.408 104.701 188.966 102.989 187.027 102.828C186.095 102.749 185.17 103.047 184.457 103.656C183.743 104.266 183.3 105.136 183.226 106.075Z" fill="#E0E0E0"/>
<path id="Path_9" d="M164.736 105.354C164.578 107.306 166.022 109.017 167.961 109.176C169.899 109.336 171.6 107.884 171.759 105.932C171.918 103.981 170.476 102.269 168.538 102.108C166.598 101.949 164.896 103.402 164.736 105.354Z" fill="#E0E0E0"/>
<ellipse id="Oval_2" cx="191.831" cy="105.626" rx="3.52849" ry="3.55062" transform="rotate(-8.37 191.831 105.626)" fill="#E0E0E0"/>
<ellipse id="Oval_3" cx="163.496" cy="102.642" rx="3.53796" ry="3.54154" transform="rotate(-40.5392 163.496 102.642)" fill="#E0E0E0"/>
<path id="Path_10" d="M155.002 104.548C154.844 106.499 156.287 108.21 158.226 108.37C160.165 108.529 161.865 107.077 162.024 105.126C162.184 103.174 160.742 101.462 158.803 101.301C156.863 101.142 155.162 102.595 155.002 104.548Z" fill="#E0E0E0"/>
<path id="Path_11" d="M150.974 105.504C150.974 105.504 151.579 120.032 174.773 120.032C197.966 120.032 198.571 105.504 198.571 105.504H150.974Z" fill="#F6FBE2"/>
<rect id="Rectangle_36" x="207.394" y="120.032" width="4.4112" height="38.1442" fill="#E6E6E6"/>
<rect id="Rectangle_37" x="210.384" y="120.032" width="2.5968" height="38.1442" fill="#F6FBE2"/>
<rect id="Rectangle_38" x="188.626" y="120.032" width="4.4112" height="38.1442" fill="#E6E6E6"/>
<rect id="Rectangle_39" x="191.266" y="120.032" width="2.5968" height="38.1442" fill="#F6FBE2"/>
<rect id="Rectangle_40" x="213.787" y="124.661" width="62.6208" height="4.62368" transform="rotate(180 213.787 124.661)" fill="#F6FBE2"/>
<rect id="Rectangle_41" x="127.618" y="120.032" width="4.4112" height="38.1442" fill="#E6E6E6"/>
<rect id="Rectangle_42" x="130.258" y="120.032" width="2.5968" height="38.1442" fill="#F6FBE2"/>
<rect id="Rectangle_43" x="149.28" y="124.661" width="22.4496" height="4.62368" transform="rotate(180 149.28 124.661)" fill="#E6E6E6"/>
<rect id="Rectangle_44" x="146.381" y="120.032" width="4.4112" height="38.1442" fill="#E6E6E6"/>
<rect id="Rectangle_45" x="149.376" y="120.032" width="2.5968" height="38.1442" fill="#F6FBE2"/>
</g>
<g id="freepik--Shadow--inject-34">
<ellipse id="freepik--path--inject-34" cx="120" cy="174.531" rx="93.0672" ry="5.46919" fill="#F5F5F5"/>
</g>
<g id="freepik--Trash--inject-34">
<path id="Path_12" d="M170.63 169.733C170.632 171.727 169.2 173.429 167.246 173.758C155.601 175.736 143.708 175.736 132.062 173.758C130.117 173.421 128.697 171.72 128.702 169.733V130.599H170.65L170.63 169.733Z" fill="#F57C51"/>
<path id="Path_13" opacity="0.3" d="M128.678 131.304V136.797C131.203 137.739 139.493 138.43 149.654 138.43C159.816 138.43 168.12 137.739 170.63 136.797V131.304H128.678Z" fill="#262736"/>
<path id="Path_14" d="M171.418 135.493C171.418 136.735 161.894 137.74 149.654 137.74C137.414 137.74 127.891 136.735 127.891 135.493L127.493 130.613H171.84L171.418 135.493Z" fill="#F57C51"/>
<ellipse id="Oval_4" cx="149.654" cy="130.613" rx="22.1616" ry="2.24179" fill="#F57C51"/>
<ellipse id="Oval_5" opacity="0.3" cx="149.654" cy="130.613" rx="22.1616" ry="2.24179" fill="#262736"/>
<path id="Path_15" opacity="0.2" d="M134.304 166.98C133.406 166.977 132.679 166.245 132.677 165.342V142.904C132.679 142.001 133.406 141.269 134.304 141.267C135.2 141.272 135.926 142.002 135.931 142.904V165.342C135.926 166.244 135.2 166.974 134.304 166.98Z" fill="#262736"/>
<path id="Path_16" opacity="0.2" d="M165.01 166.98C164.112 166.977 163.385 166.245 163.382 165.342V142.904C163.385 142.001 164.112 141.269 165.01 141.267C165.906 141.272 166.632 142.002 166.637 142.904V165.342C166.632 166.244 165.906 166.974 165.01 166.98Z" fill="#262736"/>
<path id="Path_17" opacity="0.2" d="M154.771 166.98C153.875 166.974 153.149 166.244 153.144 165.342V142.904C153.149 142.002 153.875 141.272 154.771 141.267C155.669 141.269 156.396 142.001 156.398 142.904V165.342C156.396 166.245 155.669 166.977 154.771 166.98Z" fill="#262736"/>
<path id="Path_18" opacity="0.2" d="M144.538 166.98C143.641 166.974 142.916 166.244 142.91 165.342V142.904C142.916 142.002 143.641 141.272 144.538 141.267C145.435 141.269 146.162 142.001 146.165 142.904V165.342C146.162 166.245 145.435 166.977 144.538 166.98Z" fill="#262736"/>
</g>
<g id="freepik--Character--inject-34">
<path id="Path_19" d="M92.5824 40.6617C92.5824 41.5684 92.0398 42.3859 91.2075 42.7328C90.3753 43.0798 89.4173 42.888 88.7803 42.2469C88.1434 41.6057 87.9528 40.6415 88.2975 39.8038C88.6423 38.9661 89.4544 38.4199 90.3552 38.4199C91.5852 38.4199 92.5824 39.4236 92.5824 40.6617Z" fill="#262736"/>
<path id="Path_20" d="M88.5648 40.9853C88.5205 40.9866 88.4795 40.9622 88.4592 40.9225C88.0588 40.182 88.0813 39.2828 88.5182 38.5635C88.9551 37.8442 89.74 37.4141 90.5774 37.4353C91.4147 37.4565 92.1772 37.9257 92.5776 38.6662C92.6069 38.7252 92.586 38.7969 92.5296 38.8305C92.5016 38.846 92.4687 38.8496 92.438 38.8405C92.4074 38.8314 92.3816 38.8105 92.3664 38.7822C91.811 37.7549 90.5334 37.3753 89.5128 37.9343C88.4922 38.4933 88.115 39.7793 88.6704 40.8066C88.6858 40.8347 88.6893 40.8679 88.6803 40.8987C88.6713 40.9296 88.6505 40.9555 88.6224 40.9708C88.6046 40.9801 88.5849 40.9851 88.5648 40.9853Z" fill="#262736"/>
<path id="Path_21" d="M86.4001 50.904C85.5153 50.9004 84.7078 50.3963 84.3113 49.6002C83.9148 48.8041 83.9967 47.8512 84.5233 47.1355C84.895 46.6344 85.4492 46.3024 86.0641 46.2127C86.0954 46.2071 86.1276 46.2149 86.1531 46.2341C86.1785 46.2533 86.195 46.2823 86.1985 46.3141C86.2071 46.3793 86.1622 46.4395 86.0977 46.4494C84.9485 46.6189 84.1533 47.6939 84.3217 48.8506C84.49 50.0074 85.5581 50.8077 86.7073 50.6383C86.7735 50.6276 86.8359 50.673 86.8465 50.7397C86.8571 50.8064 86.8119 50.8692 86.7457 50.8798C86.6311 50.8951 86.5156 50.9032 86.4001 50.904Z" fill="#262736"/>
<path id="Path_22" d="M98.5008 54.557C98.0506 54.5563 97.6102 54.4237 97.2336 54.1753C97.178 54.1383 97.1611 54.0638 97.1952 54.0062C97.2335 53.9519 97.3072 53.9371 97.3632 53.9724C98.3374 54.6088 99.6398 54.3297 100.272 53.3491C100.904 52.3685 100.627 51.0577 99.6528 50.4213C99.5972 50.3843 99.5803 50.3098 99.6144 50.2522C99.6527 50.1979 99.7264 50.1831 99.7824 50.2184C100.866 50.9284 101.175 52.3864 100.474 53.4796C100.138 54.0073 99.6049 54.3766 98.9952 54.5038C98.8326 54.5382 98.667 54.556 98.5008 54.557Z" fill="#262736"/>
<ellipse id="Oval_6" cx="89.1073" cy="44.4829" rx="3.1488" ry="3.16942" fill="#262736"/>
<circle id="Oval_7" cx="89.1098" cy="48.749" r="4.1897" transform="rotate(-45 89.1098 48.749)" fill="#262736"/>
<ellipse id="Oval_8" cx="89.5489" cy="54.0932" rx="4.6176" ry="4.64784" fill="#262736"/>
<ellipse id="Oval_9" cx="94.1684" cy="54.4082" rx="4.64625" ry="4.6192" transform="rotate(-76.72 94.1684 54.4082)" fill="#262736"/>
<path id="Path_23" d="M109.483 63.9968C109.483 64.3737 109.483 64.852 109.517 65.2868C109.55 65.7216 109.55 66.1855 109.579 66.6348C109.642 67.5334 109.704 68.4417 109.8 69.3452C109.973 71.1586 110.214 72.964 110.525 74.7613C110.606 75.2057 110.678 75.6599 110.77 76.1044L110.981 77.2011C111.034 77.3751 110.981 77.3412 110.914 77.3364C110.846 77.3316 110.914 77.4234 111.197 77.4234C111.922 77.3502 112.628 77.1456 113.28 76.8194C113.664 76.6455 114.058 76.4571 114.451 76.2542C114.845 76.0512 115.243 75.8193 115.603 75.6164L117.005 77.2446C116.67 77.6301 116.315 77.9963 115.939 78.3413C115.57 78.6956 115.178 79.0264 114.768 79.3318C114.338 79.6576 113.884 79.9499 113.41 80.2063C112.87 80.5027 112.292 80.7207 111.691 80.8537C111.321 80.9349 110.942 80.9674 110.563 80.9503C110.101 80.9234 109.648 80.8086 109.229 80.6121C108.783 80.4012 108.385 80.0984 108.062 79.7231C107.785 79.397 107.559 79.0305 107.39 78.6361C107.26 78.3343 107.154 78.0225 107.074 77.7036L106.886 76.9982C106.752 76.5151 106.642 76.0561 106.526 75.5826C106.077 73.6832 105.731 71.7607 105.49 69.8235C105.37 68.8572 105.274 67.891 105.216 66.9005C105.187 66.4174 105.163 65.9342 105.149 65.4221C105.134 64.91 105.149 64.4558 105.149 63.8809L109.483 63.9968Z" fill="#FFB573"/>
<path id="Path_24" d="M107.155 58.7885C111.25 61.9434 111.086 67.8909 111.086 67.8909L103.762 69.6544C103.762 69.6544 101.515 63.6731 102.427 61.4844C103.378 59.204 104.851 57.0105 107.155 58.7885Z" fill="#F57C51"/>
<path id="Path_25" opacity="0.7" d="M107.155 58.7885C111.25 61.9434 111.086 67.8909 111.086 67.8909L103.762 69.6544C103.762 69.6544 101.515 63.6731 102.427 61.4844C103.378 59.204 104.851 57.0105 107.155 58.7885Z" fill="white"/>
<path id="Path_26" d="M115.33 76.1726L116.539 74.124L119.573 77.3901C119.573 77.3901 117.398 78.7912 115.142 77.7911L115.33 76.1726Z" fill="#FFB573"/>
<path id="Path_27" d="M118.032 73.1426L121.925 75.452L119.573 77.3894L116.539 74.1234L118.032 73.1426Z" fill="#FFB573"/>
<path id="Path_28" d="M84.2352 170.965L88.4208 171.371L91.0224 161.501L86.832 161.095L84.2352 170.965Z" fill="#FFB573"/>
<path id="Path_29" d="M62.7793 162.67L66.5377 164.651L71.0065 155.732L67.2481 153.751L62.7793 162.67Z" fill="#FFB573"/>
<path id="Path_30" d="M67.5408 162.916L64.1808 159.481C64.0652 159.356 63.8746 159.339 63.7392 159.442L60.6528 161.728C60.5015 161.85 60.4088 162.032 60.3978 162.227C60.3868 162.422 60.4586 162.613 60.5952 162.752C61.7856 163.931 62.4192 164.438 63.8976 165.95C64.8096 166.878 66.6816 169.066 67.9392 170.352C69.1968 171.637 70.5216 170.453 70.1136 169.806C68.28 166.907 67.9728 165.085 67.8576 163.612C67.8368 163.35 67.7246 163.103 67.5408 162.916Z" fill="#262736"/>
<path id="Path_31" d="M89.0736 170.09H84C83.8135 170.092 83.6509 170.218 83.6016 170.399L82.5168 174.414C82.4618 174.608 82.5015 174.816 82.6237 174.975C82.746 175.135 82.9361 175.226 83.136 175.221C84.9168 175.221 85.7616 175.221 87.984 175.221H94.7856C96.6336 175.221 97.0224 173.342 96.2544 173.168C92.8272 172.405 90.8496 171.351 89.7936 170.346C89.5935 170.174 89.3369 170.083 89.0736 170.09Z" fill="#262736"/>
<path id="Path_32" opacity="0.2" d="M91.0176 161.505L89.6784 166.593H85.3824L86.8272 161.1L91.0176 161.505Z" fill="#262736"/>
<path id="Path_33" opacity="0.2" d="M67.2432 153.751L71.0064 155.737L68.7024 160.331L64.9392 158.346L67.2432 153.751Z" fill="#262736"/>
<path id="Path_34" d="M105.917 58.1804C105.917 58.1804 107.77 58.997 101.558 83.7339L84.3072 82.2313C85.2048 75.1919 85.584 70.834 83.4768 56.0353C85.9361 55.7454 88.4129 55.634 90.888 55.7019C93.5119 55.7419 96.1297 55.9695 98.7216 56.3831C101.149 56.8595 103.55 57.4594 105.917 58.1804Z" fill="#F57C51"/>
<path id="Path_35" opacity="0.7" d="M105.917 58.1804C105.917 58.1804 107.77 58.997 101.558 83.7339L84.3072 82.2313C85.2048 75.1919 85.584 70.834 83.4768 56.0353C85.9361 55.7454 88.4129 55.634 90.888 55.7019C93.5119 55.7419 96.1297 55.9695 98.7216 56.3831C101.149 56.8595 103.55 57.4594 105.917 58.1804Z" fill="white"/>
<path id="Path_36" d="M90.888 55.5615C90.888 55.5615 89.928 55.5615 88.752 55.5615C88.056 56.6389 90.9936 59.7842 94.728 62.8763C95.6304 60.0596 97.0512 60.0693 97.0512 60.0693L90.888 55.5615Z" fill="white"/>
<path id="Path_37" d="M98.7168 56.3203C98.7168 56.3203 99.1536 56.3831 100.2 56.6247C100.891 57.7021 101.28 60.398 99.24 62.7461C98.4384 59.8473 97.056 60.1082 97.056 60.1082L98.7168 56.3203Z" fill="white"/>
<path id="Path_38" d="M92.4241 46.8887C92.7025 49.4687 92.7937 54.1358 90.8881 55.7012C90.8881 55.7012 92.9233 57.7981 97.0513 60.1075C100.046 58.0203 98.7217 56.3824 98.7217 56.3824C95.9665 55.4645 96.2209 53.3725 96.8785 51.4399L92.4241 46.8887Z" fill="#FFB573"/>
<path id="Path_39" opacity="0.2" d="M94.2433 48.749L96.8785 51.4401C96.7168 51.8874 96.5947 52.3482 96.5137 52.8171C95.4577 52.5707 93.9217 51.4595 93.9025 50.3192C93.9209 49.7794 94.0363 49.2474 94.2433 48.749V48.749Z" fill="#262736"/>
<path id="Path_40" d="M102.322 38.4727C104.088 40.0477 104.606 43.8839 102.926 46.488C102.422 43.8482 102.219 41.1589 102.322 38.4727V38.4727Z" fill="#262736"/>
<path id="Path_41" d="M91.8864 41.4733C91.5792 45.7202 91.3632 47.5126 93.1872 49.9622C95.9328 53.6485 101.184 53.0929 102.744 49.0249C104.15 45.3578 104.414 39.0286 100.541 36.7965C98.8099 35.7795 96.6783 35.7413 94.9125 36.6955C93.1467 37.6497 92.0006 39.4593 91.8864 41.4733Z" fill="#FFB573"/>
<path id="Path_42" d="M91.3248 44.8937C94.4448 44.7729 96.1728 40.6662 95.3904 38.9317C98.928 40.7869 104.285 42.246 103.69 39.8593C102.888 36.6367 99.0144 34.2742 94.248 35.9942C91.488 37.202 89.1264 39.8593 91.3248 44.8937Z" fill="#262736"/>
<path id="Path_43" d="M90.3744 44.8888C90.5077 45.7008 90.9524 46.4278 91.6128 46.9131C92.496 47.5461 93.3024 46.8407 93.3648 45.8116C93.4224 44.8791 93.0336 43.4297 91.9968 43.2074C91.5355 43.1152 91.0592 43.2646 90.7315 43.6041C90.4038 43.9437 90.2694 44.4273 90.3744 44.8888Z" fill="#FFB573"/>
<path id="Path_44" d="M101.558 83.7336C101.558 83.7336 105.461 109.364 103.286 125.83C101.64 138.271 91.0176 165.114 91.0176 165.114L84.12 164.926C84.12 164.926 91.2432 138.909 92.7168 128.69C95.2368 111.191 88.9248 82.6514 88.9248 82.6514L101.558 83.7336Z" fill="#262736"/>
<path id="Path_45" opacity="0.2" d="M94.8288 88.9854L91.1472 94.8266C92.2558 101.752 92.9594 108.738 93.2544 115.747C98.4288 106.422 96 93.9182 94.8288 88.9854Z" fill="#262736"/>
<path id="Path_46" d="M92.0929 165.501L83.4241 165.264L83.9521 162.457L92.9089 162.51L92.0929 165.501Z" fill="#F57C51"/>
<path id="Path_47" d="M97.7857 83.4579C97.7857 83.4579 94.9057 111.838 88.3249 127.279C83.0017 139.744 70.3105 159.683 70.3105 159.683L65.2417 156.698C65.2417 156.698 73.4017 134.526 77.4289 126.216C87.2545 105.842 78.1153 89.4972 84.3073 82.25L97.7857 83.4579Z" fill="#262736"/>
<path id="Path_48" d="M70.8625 160.119L64.3969 156.549L65.4481 153.766L72.3361 157.679L70.8625 160.119Z" fill="#F57C51"/>
<path id="Path_49" d="M84.1345 81.1921L83.2225 82.6801C83.1553 82.7913 83.2849 82.9314 83.4865 82.9459L101.578 84.5209C101.731 84.5209 101.87 84.4678 101.885 84.3711L102.178 82.8299C102.178 82.7236 102.067 82.6222 101.899 82.6077L84.4273 81.0858C84.3181 81.0691 84.2079 81.1091 84.1345 81.1921Z" fill="#F57C51"/>
<path id="Path_50" d="M86.3137 83.3613L85.8337 83.3227C85.7425 83.3227 85.6753 83.2599 85.6849 83.2019L86.0785 81.2017C86.0785 81.1389 86.1793 81.1002 86.2705 81.1099L86.7505 81.1485C86.8465 81.1485 86.9137 81.2113 86.8993 81.2693L86.5105 83.2695C86.4913 83.3275 86.4001 83.371 86.3137 83.3613Z" fill="#262736"/>
<path id="Path_51" d="M100.248 84.5741L99.7681 84.5354C99.6721 84.5354 99.6049 84.4726 99.6193 84.4146L100.013 82.4144C100.013 82.3565 100.109 82.313 100.2 82.3226L100.68 82.3613C100.771 82.3613 100.838 82.4241 100.829 82.4821L100.435 84.4823C100.426 84.5499 100.32 84.5837 100.248 84.5741Z" fill="#262736"/>
<path id="Path_52" d="M93.2784 83.9705L92.7984 83.927C92.7072 83.927 92.64 83.8642 92.6496 83.8063L93.0432 81.806C93.0432 81.7481 93.1392 81.7046 93.2352 81.7142L93.7152 81.7577C93.8064 81.7577 93.8736 81.8205 93.864 81.8785L93.4704 83.8787C93.4608 83.9367 93.3744 83.9754 93.2784 83.9705Z" fill="#262736"/>
<path id="Path_53" d="M98.4961 43.5842C98.4481 43.9272 98.5921 44.2316 98.8129 44.2606C99.0337 44.2895 99.2545 44.0383 99.2929 43.6953C99.3313 43.3522 99.1921 43.0479 98.9713 43.0189C98.7505 42.9899 98.5393 43.2411 98.4961 43.5842Z" fill="#262736"/>
<path id="Path_54" d="M102.346 44.1066C102.302 44.4496 102.446 44.754 102.667 44.783C102.888 44.812 103.109 44.5608 103.147 44.2177C103.186 43.8747 103.051 43.5703 102.83 43.5413C102.61 43.5123 102.394 43.7636 102.346 44.1066Z" fill="#262736"/>
<path id="Path_55" d="M102.72 43.5456L103.574 43.4199C103.574 43.4199 103.075 44.0045 102.72 43.5456Z" fill="#262736"/>
<path id="Path_56" d="M100.834 44.4834C101.034 45.306 101.344 46.0976 101.755 46.8363C101.371 47.042 100.916 47.0667 100.512 46.9039L100.834 44.4834Z" fill="#ED893E"/>
<path id="Path_57" d="M98.5152 47.9273C97.8401 47.7059 97.2738 47.2344 96.9312 46.6084C96.9134 46.5669 96.9301 46.5186 96.9696 46.4972C97.012 46.4762 97.0634 46.4934 97.0848 46.5359C97.5174 47.2993 98.286 47.8091 99.1536 47.908C99.1987 47.908 99.2352 47.9448 99.2352 47.9902C99.2352 48.0355 99.1987 48.0723 99.1536 48.0723C98.9361 48.0481 98.7219 47.9995 98.5152 47.9273Z" fill="#262736"/>
<path id="Path_58" d="M96.744 41.5989C96.7161 41.5872 96.6914 41.569 96.672 41.5457C96.64 41.5147 96.6219 41.472 96.6219 41.4273C96.6219 41.3827 96.64 41.3399 96.672 41.309C97.1494 40.8792 97.8062 40.713 98.4288 40.8645C98.4712 40.8767 98.5068 40.9057 98.5276 40.9449C98.5484 40.984 98.5526 41.0299 98.5392 41.0722C98.5136 41.1613 98.4215 41.213 98.3328 41.1882C97.8205 41.0734 97.2847 41.2137 96.8928 41.565C96.8505 41.5976 96.7961 41.61 96.744 41.5989Z" fill="#262736"/>
<path id="Path_59" d="M103.963 42.6277C103.938 42.6179 103.915 42.6031 103.896 42.5842C103.555 42.1811 103.043 41.9658 102.518 42.0045C102.474 42.0144 102.428 42.0047 102.391 41.9779C102.354 41.9511 102.331 41.9098 102.326 41.8643C102.312 41.7723 102.374 41.6859 102.466 41.6711C103.101 41.6135 103.726 41.8691 104.141 42.3572C104.189 42.4145 104.193 42.4967 104.152 42.5592C104.111 42.6217 104.034 42.6496 103.963 42.6277Z" fill="#262736"/>
<path id="Path_60" d="M107.76 79.0812C108.605 76.4299 110.792 74.434 113.496 73.8453C116.2 73.2566 119.01 74.1646 120.869 76.2272C122.727 78.2898 123.351 81.1937 122.506 83.845L119.52 93.247L104.774 88.4783L107.76 79.0812Z" fill="#F57C51"/>
<path id="Path_61" opacity="0.3" d="M107.76 79.0812C108.605 76.4299 110.792 74.434 113.496 73.8453C116.2 73.2566 119.01 74.1646 120.869 76.2272C122.727 78.2898 123.351 81.1937 122.506 83.845L119.52 93.247L104.774 88.4783L107.76 79.0812Z" fill="#262736"/>
<path id="Path_62" d="M93.2112 74.3748L90.5136 82.8298C90.4338 83.0752 90.4548 83.3425 90.5721 83.5721C90.6893 83.8017 90.8929 83.9746 91.1376 84.0521L104.77 88.4584L107.765 79.0758C109.073 74.9813 113.43 72.7282 117.499 74.0414L102.95 69.3356C98.8789 68.0253 94.5221 70.2796 93.2112 74.3748Z" fill="#F57C51"/>
<path id="Path_63" d="M100.526 80.7864L104.285 69.0122C104.311 68.9267 104.299 68.834 104.252 68.758C104.205 68.682 104.128 68.6302 104.04 68.616L100.2 68.0459L99.7201 69.5726L102.518 70.4761L99.3505 80.3999L100.526 80.7864Z" fill="#262736"/>
<path id="Path_64" d="M98.5296 80.1394C98.2873 80.9013 98.7041 81.7167 99.4608 81.9613C100.217 82.2059 101.028 81.7872 101.272 81.0258C101.515 80.2644 101.1 79.4482 100.344 79.2021C99.9799 79.0836 99.584 79.1159 99.2436 79.2918C98.9032 79.4676 98.6463 79.7726 98.5296 80.1394Z" fill="#262736"/>
<path id="Path_65" d="M105.48 89.8651L124.392 95.9769C124.531 96.0224 124.682 96.0102 124.812 95.943C124.941 95.8759 125.039 95.7594 125.083 95.6193C125.13 95.4797 125.118 95.327 125.052 95.196C124.985 95.065 124.868 94.9668 124.728 94.9236L104.77 88.4736C104.584 89.0553 104.902 89.6782 105.48 89.8651Z" fill="#F57C51"/>
<path id="Path_66" opacity="0.2" d="M105.48 89.8651L113.208 92.3629C113.347 92.4086 113.499 92.3965 113.63 92.3295C113.76 92.2624 113.859 92.1458 113.904 92.0054C113.995 91.7147 113.837 91.4042 113.549 91.3097L104.77 88.4736C104.584 89.0553 104.902 89.6782 105.48 89.8651Z" fill="#262736"/>
<path id="Path_67" d="M85.5072 62.8568L85.2432 63.1515L84.9456 63.4945C84.744 63.7264 84.5424 63.9777 84.3504 64.2144C83.9568 64.6975 83.5824 65.2145 83.232 65.7363C81.7817 67.8027 80.6399 70.0718 79.8432 72.4713C79.6512 73.0704 79.4736 73.6695 79.3344 74.2831C79.2864 74.4619 79.2816 74.5344 79.2576 74.6165C79.2539 74.6873 79.2539 74.7583 79.2576 74.8291C79.2499 74.9046 79.2499 74.9807 79.2576 75.0561C79.2576 75.1431 79.4208 75.346 79.8144 75.5393C80.2876 75.7535 80.786 75.9062 81.2976 75.9934C82.5322 76.191 83.7823 76.2735 85.032 76.2398C86.3376 76.2398 87.6624 76.1239 88.9872 75.9838C90.312 75.8437 91.656 75.6697 92.9568 75.4716L93.48 77.5637C90.8009 78.4413 88.0443 79.0578 85.248 79.4044C83.7758 79.5973 82.2871 79.6297 80.808 79.5011C79.9623 79.4212 79.1319 79.2228 78.3408 78.9116C77.8662 78.7201 77.4204 78.4632 77.016 78.1483C76.5397 77.7724 76.1473 77.3 75.864 76.7616C75.3764 75.7518 75.246 74.6047 75.4944 73.5101C75.6096 72.7709 75.7776 72.0607 75.9744 71.3166C76.3511 69.8884 76.8522 68.4963 77.472 67.1567C78.0934 65.8141 78.8172 64.5218 79.6368 63.2916C80.0496 62.678 80.4912 62.0837 80.952 61.4991C81.1872 61.2092 81.432 60.9242 81.672 60.6391L82.0608 60.2188C82.2 60.069 82.3104 59.9482 82.5024 59.7646L85.5072 62.8568Z" fill="#FFB573"/>
<path id="Path_68" d="M91.9105 75.9165L95.2705 74.124L95.4193 77.7573C95.4193 77.7573 93.0193 78.7574 91.6465 77.6558L91.9105 75.9165Z" fill="#FFB573"/>
<path id="Path_69" d="M98.0401 73.8486L97.5361 77.1968L95.4241 77.7573L95.2753 74.124L98.0401 73.8486Z" fill="#FFB573"/>
<path id="Path_70" d="M83.4768 56.0446C81.36 56.4214 78.3984 62.5284 78.3984 62.5284L83.7312 67.3598C83.7312 67.3598 87.9696 62.7023 87.744 59.929C87.552 57.5858 86.1696 55.5614 83.4768 56.0446Z" fill="#F57C51"/>
<path id="Path_71" opacity="0.7" d="M83.4768 56.0446C81.36 56.4214 78.3984 62.5284 78.3984 62.5284L83.7312 67.3598C83.7312 67.3598 87.9696 62.7023 87.744 59.929C87.552 57.5858 86.1696 55.5614 83.4768 56.0446Z" fill="white"/>
<path id="Shape_3" fill-rule="evenodd" clip-rule="evenodd" d="M69.0241 164.781C69.0799 164.789 69.1363 164.789 69.1921 164.781C69.3238 164.736 69.4369 164.647 69.5137 164.53C69.589 164.438 69.6108 164.314 69.5713 164.202C69.3841 163.694 67.8913 163.356 67.7185 163.322C67.6854 163.313 67.6501 163.327 67.6321 163.356C67.6135 163.384 67.6135 163.42 67.6321 163.448C67.9249 163.931 68.4913 164.752 69.0241 164.781ZM69.0337 164.632C68.7313 164.612 68.3089 164.216 67.8817 163.554C68.4001 163.68 69.2977 163.97 69.4129 164.279C69.4347 164.336 69.4216 164.4 69.3793 164.443C69.305 164.563 69.1738 164.634 69.0337 164.632Z" fill="#F57C51"/>
<path id="Shape_4" fill-rule="evenodd" clip-rule="evenodd" d="M67.68 163.656C68.1313 163.754 68.5958 163.731 69.0384 163.59C69.2432 163.541 69.4286 163.416 69.5664 163.234C69.6517 163.08 69.6359 162.878 69.528 162.744C69.4394 162.6 69.2968 162.513 69.144 162.511C68.5696 162.463 67.7609 163.34 67.6372 163.474C67.6296 163.482 67.6246 163.487 67.6224 163.49C67.6088 163.519 67.6088 163.555 67.6224 163.584C67.6294 163.618 67.6512 163.646 67.68 163.656ZM69.4464 163.122C69.2592 163.44 68.3616 163.579 67.8816 163.501C68.1312 163.239 68.736 162.672 69.1536 162.705C69.2574 162.707 69.354 162.768 69.4128 162.867C69.4992 162.995 69.4752 163.072 69.4464 163.122Z" fill="#F57C51"/>
<path id="Shape_5" fill-rule="evenodd" clip-rule="evenodd" d="M89.4864 170.688C89.9382 170.811 90.3999 170.88 90.864 170.893C91.2122 170.928 91.5613 170.837 91.8624 170.632C92.0154 170.502 92.1075 170.297 92.112 170.078C92.1227 169.96 92.0767 169.845 91.992 169.778C91.5312 169.401 89.6928 170.394 89.4864 170.51C89.454 170.524 89.4324 170.559 89.4324 170.599C89.4324 170.639 89.454 170.674 89.4864 170.688ZM91.7424 170.471C91.3248 170.832 90.3168 170.676 89.7744 170.56H89.76C90.5328 170.172 91.6176 169.734 91.8768 169.939C91.9143 169.966 91.9334 170.017 91.9248 170.067C91.9171 170.226 91.8507 170.373 91.7424 170.471Z" fill="#F57C51"/>
<path id="Shape_6" fill-rule="evenodd" clip-rule="evenodd" d="M89.4481 170.55C89.4654 170.555 89.4836 170.555 89.5009 170.55L89.5441 170.564C90.0961 170.332 91.2529 169.419 91.1905 168.936C91.1761 168.835 91.1089 168.714 90.8593 168.68C89.8561 168.564 89.4193 170.386 89.4193 170.463C89.4137 170.495 89.4246 170.528 89.4481 170.55ZM89.6305 170.313C89.7553 169.888 90.1249 168.825 90.7585 168.825L90.8305 168.83C91.0177 168.849 91.0177 168.917 91.0177 168.941C91.0705 169.236 90.2305 169.994 89.6305 170.313Z" fill="#F57C51"/>
<path id="Path_72" d="M98.88 43.0241L99.7296 42.8985C99.7296 42.8985 99.2256 43.4831 98.88 43.0241Z" fill="#262736"/>
</g>
<g id="freepik--E-mails--inject-34">
<path id="Path_73" d="M128.414 83.4444L109.829 87.3096C109.168 87.4345 108.528 87.0056 108.389 86.3433L107.52 82.2849L107.208 80.7871L107.755 79.0768C107.831 78.8313 107.923 78.5909 108.029 78.3569C108.041 78.3198 108.057 78.2841 108.077 78.2506C108.383 77.5468 108.796 76.8949 109.301 76.3181L110.261 76.1151L126.197 72.7863C126.858 72.6613 127.497 73.0903 127.637 73.7526L129.331 81.966C129.476 82.6277 129.068 83.2843 128.414 83.4444Z" fill="#F57C51"/>
<path id="Path_74" opacity="0.3" d="M127.493 73.3173L118.526 82.4971L116.606 81.7144L109.138 78.6657L108.086 78.2357C108.393 77.5319 108.806 76.88 109.31 76.3032L110.27 76.1002L126.206 72.7714C126.706 72.671 127.216 72.8873 127.493 73.3173Z" fill="#262736"/>
<path id="Path_75" d="M127.493 73.3176L116.606 81.7292L115.896 82.2799L109.056 78.8641L108.038 78.381C108.05 78.3438 108.067 78.3082 108.086 78.2747C108.393 77.5708 108.806 76.9189 109.31 76.3421L110.27 76.1392L126.206 72.8103C126.698 72.7019 127.205 72.9022 127.493 73.3176Z" fill="#F57C51"/>
<path id="Path_76" opacity="0.2" d="M127.493 73.3176L116.606 81.7292L115.896 82.2799L109.056 78.8641L108.038 78.381C108.05 78.3438 108.067 78.3082 108.086 78.2747C108.393 77.5708 108.806 76.9189 109.31 76.3421L110.27 76.1392L126.206 72.8103C126.698 72.7019 127.205 72.9022 127.493 73.3176Z" fill="white"/>
<path id="Path_77" d="M151.104 100.388L145.44 106.533C144.975 107.032 144.197 107.06 143.698 106.596L129.806 93.5753C129.308 93.1082 129.28 92.3233 129.744 91.8215L135.427 85.6759C135.65 85.4326 135.959 85.289 136.288 85.2772C136.616 85.2654 136.935 85.3863 137.174 85.6131L151.061 98.6338C151.429 98.9786 151.552 99.5138 151.373 99.9866C151.313 100.138 151.221 100.275 151.104 100.388Z" fill="#F57C51"/>
<path id="Path_78" opacity="0.3" d="M151.354 100.011L138.72 97.9387L135.787 85.3769C136.245 85.1647 136.785 85.2505 137.155 85.5944L151.042 98.6151C151.428 98.9673 151.553 99.5263 151.354 100.011Z" fill="#262736"/>
<path id="Path_79" d="M151.354 100.011L139.051 96.3196L135.787 85.4199C136.245 85.2077 136.785 85.2935 137.155 85.6373L151.042 98.658C151.41 99.0028 151.533 99.5381 151.354 100.011Z" fill="#F57C51"/>
<path id="Path_80" opacity="0.2" d="M151.354 100.011L139.051 96.3196L135.787 85.4199C136.245 85.2077 136.785 85.2935 137.155 85.6373L151.042 98.658C151.41 99.0028 151.533 99.5381 151.354 100.011Z" fill="white"/>
<path id="Path_81" d="M156.043 110.51L162.283 117.844C162.524 118.128 162.639 118.499 162.6 118.87C162.56 119.241 162.371 119.579 162.077 119.806L148.522 130.435C148.05 130.721 147.439 130.6 147.11 130.155L142.229 124.55C142.137 124.443 142.061 124.322 142.003 124.193C141.818 123.83 141.861 123.391 142.114 123.072L154.114 110.457C154.498 110.038 155.11 109.92 155.621 110.167C155.782 110.253 155.925 110.37 156.043 110.51Z" fill="#F57C51"/>
<path id="Path_82" opacity="0.3" d="M155.621 110.181L152.64 123.526L142.022 124.207C141.837 123.844 141.881 123.405 142.133 123.086L154.133 110.471C154.514 110.061 155.115 109.944 155.621 110.181Z" fill="#262736"/>
<path id="Path_83" d="M155.621 110.181L150.624 124.342L142.013 124.207C141.828 123.844 141.871 123.406 142.123 123.086L154.123 110.471C154.506 110.057 155.112 109.939 155.621 110.181Z" fill="#F57C51"/>
<path id="Path_84" opacity="0.2" d="M155.621 110.181L150.624 124.342L142.013 124.207C141.828 123.844 141.871 123.406 142.123 123.086L154.123 110.471C154.506 110.057 155.112 109.939 155.621 110.181Z" fill="white"/>
</g>
</g>
</svg>
